<svg width="55" height="55" viewBox="0 0 55 55" fill="none" xmlns="http://www.w3.org/2000/svg">
<path d="M48.125 37.8125C48.125 38.6833 47.6438 39.4396 46.9104 39.8292L28.8063 50.0042C28.4396 50.2792 27.9813 50.4167 27.5 50.4167C27.0188 50.4167 26.5604 50.2792 26.1938 50.0042L8.0896 39.8292C7.72203 39.6363 7.41442 39.3463 7.20026 38.9907C6.98611 38.6351 6.87361 38.2276 6.87501 37.8125V17.1875C6.87501 16.3167 7.35626 15.5604 8.0896 15.1708L26.1938 4.99584C26.5604 4.72084 27.0188 4.58334 27.5 4.58334C27.9813 4.58334 28.4396 4.72084 28.8063 4.99584L46.9104 15.1708C47.6438 15.5604 48.125 16.3167 48.125 17.1875V37.8125ZM27.5 9.51043L23.1688 11.9625L36.6667 19.7313L41.1583 17.1875L27.5 9.51043ZM13.8417 17.1875L27.5 24.8646L31.9917 22.3438L18.5167 14.5521L13.8417 17.1875ZM11.4583 36.4604L25.2083 44.2063V28.8292L11.4583 21.1063V36.4604ZM43.5417 36.4604V21.1063L29.7917 28.8292V44.2063L43.5417 36.4604Z" fill="white"/>
</svg>
