<svg width="49" height="49" viewBox="0 0 49 49" fill="none" xmlns="http://www.w3.org/2000/svg">
<path d="M39.3429 10.8821C36.6275 9.61627 33.6875 8.69752 30.625 8.16669C30.5711 8.16745 30.5198 8.18947 30.4821 8.22794C30.1146 8.90169 29.6858 9.7796 29.4 10.4534C26.1517 9.96366 22.8483 9.96366 19.6 10.4534C19.3141 9.75919 18.8854 8.90169 18.4975 8.22794C18.4771 8.1871 18.4158 8.16669 18.3546 8.16669C15.2921 8.69752 12.3725 9.61627 9.63664 10.8821C9.61622 10.8821 9.59581 10.9025 9.57539 10.9229C4.02206 19.2325 2.49081 27.3175 3.24622 35.3209C3.24622 35.3617 3.26664 35.4025 3.30747 35.4229C6.98247 38.1179 10.5146 39.7513 14.0058 40.8334C14.0671 40.8538 14.1283 40.8334 14.1487 40.7925C14.9654 39.6696 15.7004 38.4854 16.3333 37.24C16.3741 37.1584 16.3333 37.0767 16.2516 37.0563C15.0879 36.6071 13.9854 36.0763 12.9033 35.4638C12.8216 35.4229 12.8216 35.3004 12.8829 35.2392C13.1075 35.0759 13.3321 34.8921 13.5566 34.7288C13.5975 34.6879 13.6587 34.6879 13.6996 34.7084C20.7229 37.9138 28.2975 37.9138 35.2391 34.7084C35.28 34.6879 35.3412 34.6879 35.3821 34.7288C35.6066 34.9125 35.8312 35.0759 36.0558 35.2596C36.1375 35.3209 36.1375 35.4434 36.0354 35.4842C34.9737 36.1171 33.8508 36.6275 32.6871 37.0767C32.6054 37.0971 32.585 37.1992 32.6054 37.2604C33.2587 38.5059 33.9937 39.69 34.79 40.8129C34.8512 40.8334 34.9125 40.8538 34.9737 40.8334C38.4854 39.7513 42.0175 38.1179 45.6925 35.4229C45.7333 35.4025 45.7537 35.3617 45.7537 35.3209C46.6521 26.0721 44.2633 18.0484 39.4246 10.9229C39.4041 10.9025 39.3837 10.8821 39.3429 10.8821ZM17.395 30.4413C15.2921 30.4413 13.5362 28.5017 13.5362 26.1129C13.5362 23.7242 15.2512 21.7846 17.395 21.7846C19.5591 21.7846 21.2741 23.7446 21.2537 26.1129C21.2537 28.5017 19.5387 30.4413 17.395 30.4413ZM31.6254 30.4413C29.5225 30.4413 27.7666 28.5017 27.7666 26.1129C27.7666 23.7242 29.4816 21.7846 31.6254 21.7846C33.7896 21.7846 35.5046 23.7446 35.4841 26.1129C35.4841 28.5017 33.7896 30.4413 31.6254 30.4413Z" fill="white"/>
</svg>
