<svg width="53" height="53" viewBox="0 0 53 53" fill="none" xmlns="http://www.w3.org/2000/svg">
<path d="M17.225 4.41666H35.775C42.8417 4.41666 48.5834 10.1583 48.5834 17.225V35.775C48.5834 39.172 47.2339 42.4298 44.8319 44.8318C42.4299 47.2339 39.172 48.5833 35.775 48.5833H17.225C10.1584 48.5833 4.41669 42.8417 4.41669 35.775V17.225C4.41669 13.828 5.76613 10.5702 8.16816 8.16813C10.5702 5.7661 13.828 4.41666 17.225 4.41666ZM16.7834 8.83332C14.6749 8.83332 12.6528 9.67091 11.1619 11.1618C9.67094 12.6527 8.83335 14.6749 8.83335 16.7833V36.2167C8.83335 40.6112 12.3888 44.1667 16.7834 44.1667H36.2167C38.3252 44.1667 40.3473 43.3291 41.8382 41.8382C43.3291 40.3472 44.1667 38.3251 44.1667 36.2167V16.7833C44.1667 12.3887 40.6113 8.83332 36.2167 8.83332H16.7834ZM38.0938 12.1458C38.8259 12.1458 39.528 12.4367 40.0457 12.9543C40.5634 13.472 40.8542 14.1741 40.8542 14.9062C40.8542 15.6383 40.5634 16.3405 40.0457 16.8581C39.528 17.3758 38.8259 17.6667 38.0938 17.6667C37.3617 17.6667 36.6595 17.3758 36.1419 16.8581C35.6242 16.3405 35.3334 15.6383 35.3334 14.9062C35.3334 14.1741 35.6242 13.472 36.1419 12.9543C36.6595 12.4367 37.3617 12.1458 38.0938 12.1458ZM26.5 15.4583C29.4285 15.4583 32.2369 16.6216 34.3077 18.6924C36.3784 20.7631 37.5417 23.5716 37.5417 26.5C37.5417 29.4284 36.3784 32.2369 34.3077 34.3076C32.2369 36.3783 29.4285 37.5417 26.5 37.5417C23.5716 37.5417 20.7631 36.3783 18.6924 34.3076C16.6217 32.2369 15.4584 29.4284 15.4584 26.5C15.4584 23.5716 16.6217 20.7631 18.6924 18.6924C20.7631 16.6216 23.5716 15.4583 26.5 15.4583ZM26.5 19.875C24.743 19.875 23.0579 20.573 21.8154 21.8154C20.573 23.0578 19.875 24.7429 19.875 26.5C19.875 28.257 20.573 29.9421 21.8154 31.1846C23.0579 32.427 24.743 33.125 26.5 33.125C28.2571 33.125 29.9422 32.427 31.1846 31.1846C32.427 29.9421 33.125 28.257 33.125 26.5C33.125 24.7429 32.427 23.0578 31.1846 21.8154C29.9422 20.573 28.2571 19.875 26.5 19.875Z" fill="white"/>
</svg>
