<svg width="44" height="44" viewBox="0 0 44 44" fill="none" xmlns="http://www.w3.org/2000/svg">
<mask id="mask0_6_18" style="mask-type:luminance" maskUnits="userSpaceOnUse" x="0" y="0" width="44" height="44">
<path d="M0 0H44V44H0V0Z" fill="white"/>
</mask>
<g mask="url(#mask0_6_18)">
<path d="M20.559 0.0112292C20.4637 0.0203958 20.163 0.0515625 19.8917 0.0717292C13.6437 0.636396 7.79167 4.0079 4.081 9.19073C2.03316 12.0363 0.701224 15.3334 0.198 18.8029C0.022 20.0129 0 20.3686 0 22.0076C0 23.6466 0.022 24.0041 0.198 25.2122C1.39333 33.4751 7.27467 40.4161 15.2478 42.9882C16.676 43.4484 18.1812 43.7619 19.8917 43.9526C20.559 44.0259 23.441 44.0259 24.1083 43.9526C27.0618 43.6244 29.5662 42.8929 32.0338 41.6334C32.4133 41.4409 32.4867 41.3877 32.4353 41.3456C31.2283 39.7537 30.0335 38.1525 28.8512 36.5422L25.333 31.7884L20.9257 25.2636C19.4592 23.0812 17.9791 20.908 16.4853 18.7442C16.4688 18.7387 16.4523 21.6372 16.4432 25.1792C16.4303 31.3759 16.4248 31.6252 16.3478 31.7719C16.2722 31.9427 16.1383 32.0811 15.9702 32.1624C15.8327 32.2321 15.7135 32.2449 15.0627 32.2449H14.3183L14.1203 32.1202C13.9978 32.0429 13.8984 31.934 13.8325 31.8049L13.7408 31.6124L13.75 22.9884L13.7628 14.3607L13.8967 14.1921C13.9855 14.0853 14.0937 13.9964 14.2157 13.9299C14.3917 13.8437 14.4595 13.8364 15.2057 13.8364C16.082 13.8364 16.2287 13.8694 16.456 14.1187C16.5202 14.1884 18.9072 17.7854 21.7635 22.1157L30.4425 35.2644L33.9258 40.5407L34.1037 40.4252C35.7803 39.311 37.3002 37.9774 38.6228 36.4597C41.3949 33.2866 43.1931 29.3814 43.802 25.2122C43.978 24.0022 44 23.6466 44 22.0076C44 20.3686 43.978 20.0129 43.802 18.8029C42.6067 10.5419 36.7253 3.59906 28.7522 1.0269C27.262 0.553106 25.7276 0.231847 24.1725 0.0680625C23.7582 0.0240625 20.9165 -0.0236042 20.5608 0.0130625M29.568 13.3231C29.6704 13.3743 29.7616 13.4454 29.8362 13.5323C29.9108 13.6192 29.9673 13.7201 30.0025 13.8291C30.0355 13.9391 30.0447 16.3316 30.0355 21.7216L30.0227 29.4546L28.6605 27.3646L27.2928 25.2746V19.6536C27.2928 16.0181 27.3093 13.9757 27.335 13.8767C27.3657 13.7623 27.4192 13.6553 27.4923 13.562C27.5654 13.4688 27.6566 13.3912 27.7603 13.3341C27.9382 13.2424 28.0023 13.2351 28.677 13.2351C29.3132 13.2351 29.425 13.2442 29.568 13.3212" fill="white"/>
</g>
</svg>
