<svg width="46" height="46" viewBox="0 0 46 46" fill="none" xmlns="http://www.w3.org/2000/svg">
<path d="M23 19.3775C24.9742 19.3775 26.5842 20.9875 26.5842 23C26.5842 24.9167 24.9742 26.5458 23 26.5458C21.0258 26.5458 19.4158 24.9167 19.4158 23C19.4158 20.9875 21.0258 19.3775 23 19.3775ZM14.1258 38.3333C15.3333 39.0617 17.9783 37.95 21.0258 35.075C20.0292 33.9442 19.0517 32.7175 18.1317 31.4333C16.5873 31.2844 15.0518 31.0541 13.5317 30.7433C12.5542 34.845 12.9183 37.6625 14.1258 38.3333ZM15.4867 27.3317L14.9308 26.3542C14.72 26.91 14.5092 27.4658 14.375 28.0025C14.8925 28.1175 15.4675 28.2133 16.0617 28.3092L15.4867 27.3317ZM28.0217 25.875L29.5742 23L28.0217 20.125C27.4467 19.1092 26.8333 18.2083 26.2775 17.3075C25.2425 17.25 24.15 17.25 23 17.25C21.85 17.25 20.7575 17.25 19.7225 17.3075C19.1667 18.2083 18.5533 19.1092 17.9783 20.125L16.4258 23L17.9783 25.875C18.5533 26.8908 19.1667 27.7917 19.7225 28.6925C20.7575 28.75 21.85 28.75 23 28.75C24.15 28.75 25.2425 28.75 26.2775 28.6925C26.8333 27.7917 27.4467 26.8908 28.0217 25.875ZM23 12.995C22.6358 13.4167 22.2525 13.8575 21.8692 14.375H24.1308C23.7475 13.8575 23.3642 13.4167 23 12.995ZM23 33.005C23.3642 32.5833 23.7475 32.1425 24.1308 31.625H21.8692C22.2525 32.1425 22.6358 32.5833 23 33.005ZM31.855 7.66667C30.6667 6.93833 28.0217 8.05 24.9742 10.925C25.9708 12.0558 26.9483 13.2825 27.8683 14.5667C29.44 14.72 30.9925 14.95 32.4683 15.2567C33.4458 11.155 33.0817 8.3375 31.855 7.66667ZM30.5133 18.6683L31.0692 19.6458C31.28 19.09 31.4908 18.5342 31.625 17.9975C31.1075 17.8825 30.5325 17.7867 29.9383 17.6908L30.5133 18.6683ZM33.2925 5.15583C36.11 6.76583 36.4167 11.0017 35.2283 15.9467C40.0967 17.3842 43.6042 19.7608 43.6042 23C43.6042 26.2392 40.0967 28.6158 35.2283 30.0533C36.4167 34.9983 36.11 39.2342 33.2925 40.8442C30.4942 42.4542 26.68 40.6142 23 37.1067C19.32 40.6142 15.5058 42.4542 12.6883 40.8442C9.89001 39.2342 9.58334 34.9983 10.7717 30.0533C5.90334 28.6158 2.39584 26.2392 2.39584 23C2.39584 19.7608 5.90334 17.3842 10.7717 15.9467C9.58334 11.0017 9.89001 6.76583 12.6883 5.15583C15.5058 3.54583 19.32 5.38583 23 8.89333C26.68 5.38583 30.4942 3.54583 33.2925 5.15583ZM32.7367 23C33.3883 24.4375 33.9633 25.875 34.4425 27.3317C38.4675 26.1242 40.7292 24.3992 40.7292 23C40.7292 21.6008 38.4675 19.8758 34.4425 18.6683C33.9633 20.125 33.3883 21.5625 32.7367 23ZM13.2633 23C12.6117 21.5625 12.0367 20.125 11.5575 18.6683C7.53251 19.8758 5.27084 21.6008 5.27084 23C5.27084 24.3992 7.53251 26.1242 11.5575 27.3317C12.0367 25.875 12.6117 24.4375 13.2633 23ZM30.5133 27.3317L29.9383 28.3092C30.5325 28.2133 31.1075 28.1175 31.625 28.0025C31.4908 27.4658 31.28 26.91 31.0692 26.3542L30.5133 27.3317ZM24.9742 35.075C28.0217 37.95 30.6667 39.0617 31.855 38.3333C33.0817 37.6625 33.4458 34.845 32.4683 30.7433C30.9925 31.05 29.44 31.28 27.8683 31.4333C26.9483 32.7175 25.9708 33.9442 24.9742 35.075ZM15.4867 18.6683L16.0617 17.6908C15.4675 17.7867 14.8925 17.8825 14.375 17.9975C14.5092 18.5342 14.72 19.09 14.9308 19.6458L15.4867 18.6683ZM21.0258 10.925C17.9783 8.05 15.3333 6.93833 14.1258 7.66667C12.9183 8.3375 12.5542 11.155 13.5317 15.2567C15.0518 14.9459 16.5873 14.7156 18.1317 14.5667C19.0517 13.2825 20.0292 12.0558 21.0258 10.925Z" fill="white"/>
</svg>
