<svg width="49" height="39" viewBox="0 0 49 39" fill="none" xmlns="http://www.w3.org/2000/svg">
<g clip-path="url(#clip0_6_6)">
<path d="M24.5 0C25.8552 0 26.95 1.08926 26.95 2.4375V7.3125H36.1375C39.1847 7.3125 41.65 9.76523 41.65 12.7969V33.5156C41.65 36.5473 39.1847 39 36.1375 39H12.8625C9.81531 39 7.35 36.5473 7.35 33.5156V12.7969C7.35 9.76523 9.81531 7.3125 12.8625 7.3125H22.05V2.4375C22.05 1.08926 23.1448 0 24.5 0ZM15.925 29.25C15.2513 29.25 14.7 29.7984 14.7 30.4688C14.7 31.1391 15.2513 31.6875 15.925 31.6875H18.375C19.0488 31.6875 19.6 31.1391 19.6 30.4688C19.6 29.7984 19.0488 29.25 18.375 29.25H15.925ZM23.275 29.25C22.6013 29.25 22.05 29.7984 22.05 30.4688C22.05 31.1391 22.6013 31.6875 23.275 31.6875H25.725C26.3988 31.6875 26.95 31.1391 26.95 30.4688C26.95 29.7984 26.3988 29.25 25.725 29.25H23.275ZM30.625 29.25C29.9513 29.25 29.4 29.7984 29.4 30.4688C29.4 31.1391 29.9513 31.6875 30.625 31.6875H33.075C33.7488 31.6875 34.3 31.1391 34.3 30.4688C34.3 29.7984 33.7488 29.25 33.075 29.25H30.625ZM20.2125 19.5C20.2125 18.6919 19.8898 17.9169 19.3155 17.3455C18.7412 16.7741 17.9622 16.4531 17.15 16.4531C16.3378 16.4531 15.5588 16.7741 14.9845 17.3455C14.4102 17.9169 14.0875 18.6919 14.0875 19.5C14.0875 20.3081 14.4102 21.0831 14.9845 21.6545C15.5588 22.2259 16.3378 22.5469 17.15 22.5469C17.9622 22.5469 18.7412 22.2259 19.3155 21.6545C19.8898 21.0831 20.2125 20.3081 20.2125 19.5ZM31.85 22.5469C32.6622 22.5469 33.4412 22.2259 34.0155 21.6545C34.5898 21.0831 34.9125 20.3081 34.9125 19.5C34.9125 18.6919 34.5898 17.9169 34.0155 17.3455C33.4412 16.7741 32.6622 16.4531 31.85 16.4531C31.0378 16.4531 30.2588 16.7741 29.6845 17.3455C29.1102 17.9169 28.7875 18.6919 28.7875 19.5C28.7875 20.3081 29.1102 21.0831 29.6845 21.6545C30.2588 22.2259 31.0378 22.5469 31.85 22.5469ZM3.675 17.0625H4.9V31.6875H3.675C1.64609 31.6875 0 30.0498 0 28.0312V20.7188C0 18.7002 1.64609 17.0625 3.675 17.0625ZM45.325 17.0625C47.3539 17.0625 49 18.7002 49 20.7188V28.0312C49 30.0498 47.3539 31.6875 45.325 31.6875H44.1V17.0625H45.325Z" fill="white"/>
</g>
<defs>
<clipPath id="clip0_6_6">
<rect width="49" height="39" fill="white"/>
</clipPath>
</defs>
</svg>
