<svg width="46" height="46" viewBox="0 0 46 46" fill="none" xmlns="http://www.w3.org/2000/svg">
<g clip-path="url(#clip0_1_19)">
<path d="M45.6838 22.4307L43.7518 21.2367L43.6981 20.6732L45.3579 19.1264C45.4399 19.0487 45.5008 18.9515 45.535 18.8439C45.5691 18.7363 45.5753 18.6217 45.5531 18.511C45.5309 18.4003 45.4809 18.297 45.4079 18.2109C45.3349 18.1248 45.2412 18.0586 45.1356 18.0186L43.0158 17.2251C42.9632 17.0421 42.9076 16.86 42.849 16.6788L44.1715 14.8388C44.2377 14.747 44.2793 14.6398 44.2923 14.5274C44.3054 14.415 44.2894 14.3011 44.246 14.1966C44.2026 14.0921 44.1331 14.0004 44.0443 13.9303C43.9554 13.8602 43.8501 13.814 43.7384 13.7962L41.5035 13.432C41.4168 13.2638 41.3274 13.097 41.2352 12.9317L42.1744 10.8694C42.2222 10.7667 42.2424 10.6532 42.233 10.5403C42.2236 10.4274 42.1849 10.3188 42.1207 10.2254C42.0575 10.1318 41.9716 10.0556 41.8711 10.004C41.7706 9.95241 41.6586 9.92704 41.5457 9.93024L39.2744 10.0088C39.1574 9.86128 39.0373 9.71622 38.9141 9.57374L39.4374 7.36383C39.4632 7.25363 39.4604 7.13868 39.4294 7.02984C39.3984 6.92099 39.3401 6.82187 39.2601 6.74184C39.1801 6.66182 39.0809 6.60353 38.9721 6.57251C38.8633 6.54149 38.7483 6.53876 38.6381 6.56458L36.4282 7.08783L35.9912 6.72749L36.0698 4.45816C36.0753 4.34453 36.0513 4.23141 36.0002 4.12979C35.9491 4.02817 35.8725 3.9415 35.778 3.87822C35.6835 3.81494 35.5742 3.7772 35.4607 3.76866C35.3473 3.76012 35.2336 3.78108 35.1306 3.82949L33.0683 4.76866L32.5661 4.50033L32.2019 2.26358C32.1833 2.15207 32.1365 2.04714 32.0662 1.95865C31.9958 1.87016 31.9041 1.80101 31.7996 1.7577C31.6952 1.71439 31.5814 1.69834 31.4691 1.71106C31.3567 1.72378 31.2495 1.76485 31.1574 1.83041L29.3174 3.15291C29.1362 3.09496 28.9541 3.04 28.7711 2.98808L27.9776 0.868242C27.9376 0.762657 27.8714 0.668963 27.7853 0.59594C27.6991 0.522917 27.5959 0.472955 27.4852 0.450736C27.3745 0.428517 27.2599 0.434769 27.1523 0.468905C27.0447 0.503042 26.9475 0.563945 26.8698 0.645909L25.323 2.30766C25.1355 2.28669 24.9476 2.2688 24.7595 2.25399L23.5654 0.321992C23.5062 0.225256 23.423 0.14535 23.324 0.0899154C23.2251 0.0344805 23.1135 0.00537109 23 0.00537109C22.8866 0.00537109 22.775 0.0344805 22.676 0.0899154C22.577 0.14535 22.4939 0.225256 22.4346 0.321992L21.2405 2.25399L20.677 2.30766L19.1284 0.645909C19.0512 0.56294 18.954 0.501129 18.8462 0.466373C18.7383 0.431617 18.6234 0.425075 18.5123 0.447371C18.4012 0.469667 18.2977 0.520058 18.2116 0.593736C18.1255 0.667414 18.0597 0.761921 18.0205 0.868242L17.227 2.98808L16.6808 3.15291L14.8427 1.83041C14.7506 1.76485 14.6433 1.72378 14.531 1.71106C14.4186 1.69834 14.3049 1.71439 14.2004 1.7577C14.096 1.80101 14.0043 1.87016 13.9339 1.95865C13.8635 2.04714 13.8168 2.15207 13.7981 2.26358L13.4339 4.50033C13.2651 4.587 13.0977 4.67646 12.9318 4.76866L10.8694 3.82949C10.7664 3.78223 10.653 3.76217 10.54 3.77121C10.427 3.78026 10.3182 3.81812 10.224 3.88117C10.1299 3.94422 10.0534 4.03037 10.002 4.13138C9.95053 4.23239 9.92585 4.3449 9.93028 4.45816L10.0089 6.72749C9.86101 6.84427 9.71532 6.96376 9.57186 7.08591L7.36195 6.56458C7.25176 6.53876 7.1368 6.54149 7.02796 6.57251C6.91912 6.60353 6.81999 6.66182 6.73996 6.74184C6.65994 6.82187 6.60166 6.92099 6.57064 7.02984C6.53962 7.13868 6.53688 7.25363 6.5627 7.36383L7.08211 9.57374L6.72561 10.0088L4.45628 9.92832C4.34302 9.9239 4.23051 9.94858 4.1295 10C4.02849 10.0514 3.94234 10.1279 3.87929 10.2221C3.81624 10.3163 3.77838 10.4251 3.76934 10.5381C3.76029 10.651 3.78035 10.7645 3.82761 10.8675L4.76678 12.9317C4.67458 13.0976 4.58512 13.2651 4.49845 13.4339L2.26361 13.7981C2.15242 13.8169 2.04782 13.8637 1.95959 13.9339C1.87136 14.0042 1.80239 14.0956 1.75912 14.1998C1.71585 14.304 1.6997 14.4174 1.71217 14.5295C1.72465 14.6416 1.76534 14.7486 1.83045 14.8407L3.15295 16.6769L2.9862 17.2251L0.866364 18.0186C0.760779 18.0586 0.667085 18.1248 0.594062 18.2109C0.521038 18.297 0.471077 18.4003 0.448858 18.511C0.426639 18.6217 0.432891 18.7363 0.467027 18.8439C0.501163 18.9515 0.562067 19.0487 0.644031 19.1264L2.30386 20.6732C2.28289 20.8607 2.265 21.0485 2.2502 21.2367L0.318197 22.4307C0.220546 22.4893 0.139729 22.5722 0.0836185 22.6713C0.0275079 22.7704 -0.00198364 22.8823 -0.00198364 22.9962C-0.00198364 23.11 0.0275079 23.222 0.0836185 23.321C0.139729 23.4201 0.220546 23.503 0.318197 23.5616L2.2502 24.7557C2.26553 24.9435 2.28342 25.1313 2.30386 25.3192L0.644031 26.8659C0.561062 26.9431 0.499251 27.0402 0.464495 27.1481C0.429739 27.2559 0.423197 27.3709 0.445493 27.482C0.467789 27.5931 0.51818 27.6966 0.591858 27.7827C0.665536 27.8688 0.760043 27.9346 0.866364 27.9737L2.9862 28.7692C3.03986 28.9532 3.09545 29.1352 3.15295 29.3154L1.83045 31.1535C1.76369 31.2453 1.72167 31.3527 1.70845 31.4654C1.69522 31.5781 1.71124 31.6924 1.75494 31.7971C1.79865 31.9019 1.86858 31.9936 1.958 32.0635C2.04743 32.1334 2.15333 32.1791 2.26553 32.1962L4.50036 32.5603C4.58853 32.729 4.67797 32.8964 4.7687 33.0625L3.82953 35.1248C3.78227 35.2279 3.7622 35.3413 3.77125 35.4543C3.7803 35.5672 3.81816 35.676 3.88121 35.7702C3.94426 35.8644 4.0304 35.9409 4.13142 35.9923C4.23243 36.0437 4.34493 36.0684 4.4582 36.064L6.72561 35.9854C6.84445 36.1324 6.96392 36.2774 7.08403 36.4205L6.56653 38.6323C6.54029 38.7424 6.54265 38.8574 6.57338 38.9663C6.60412 39.0752 6.66221 39.1744 6.74213 39.2545C6.82204 39.3346 6.92113 39.3929 7.02995 39.4239C7.13878 39.4549 7.25373 39.4576 7.36386 39.4316L9.57378 38.9102C9.71817 39.0329 9.86384 39.1524 10.0108 39.2687L9.9322 41.538C9.92702 41.6515 9.95124 41.7643 10.0025 41.8657C10.0538 41.967 10.1304 42.0534 10.2249 42.1165C10.3193 42.1795 10.4285 42.2171 10.5418 42.2256C10.655 42.234 10.7686 42.2131 10.8714 42.1647L12.9337 41.2256C13.0998 41.3189 13.2672 41.4083 13.4359 41.4939L13.8 43.7307C13.8184 43.8423 13.865 43.9475 13.9352 44.0362C14.0055 44.1249 14.0972 44.1943 14.2017 44.2378C14.3062 44.2814 14.42 44.2976 14.5325 44.285C14.645 44.2724 14.7524 44.2313 14.8446 44.1657L16.6827 42.8432C16.8639 42.9012 17.046 42.9561 17.2289 43.0081L18.0224 45.1298C18.0614 45.2364 18.1271 45.3311 18.2133 45.4049C18.2995 45.4787 18.4032 45.5291 18.5144 45.5513C18.6257 45.5734 18.7408 45.5665 18.8487 45.5313C18.9565 45.4961 19.0535 45.4338 19.1303 45.3502L20.6789 43.6923L21.2424 43.7498L22.4365 45.678C22.4962 45.7743 22.5794 45.8537 22.6784 45.9088C22.7773 45.964 22.8887 45.9929 23.0019 45.9929C23.1152 45.9929 23.2266 45.964 23.3255 45.9088C23.4245 45.8537 23.5077 45.7743 23.5674 45.678L24.7614 43.7479C24.9506 43.7313 25.1384 43.7121 25.3249 43.6904L26.8717 45.3502C26.9492 45.4323 27.0463 45.4932 27.1538 45.5275C27.2614 45.5618 27.3758 45.5682 27.4865 45.5462C27.5972 45.5242 27.7005 45.4744 27.7867 45.4016C27.873 45.3288 27.9393 45.2353 27.9795 45.1298L28.773 43.0081C28.956 42.9555 29.1381 42.8999 29.3193 42.8413L31.1574 44.1638C31.249 44.231 31.3565 44.2735 31.4693 44.287C31.5822 44.3006 31.6966 44.2849 31.8016 44.2413C31.9066 44.1978 31.9986 44.1279 32.0687 44.0385C32.1389 43.949 32.1847 43.843 32.2019 43.7307L32.5661 41.4958L33.0683 41.2275L35.1306 42.1667C35.2337 42.2134 35.347 42.233 35.4597 42.2237C35.5725 42.2144 35.681 42.1765 35.7751 42.1135C35.8691 42.0506 35.9455 41.9647 35.9971 41.864C36.0486 41.7633 36.0737 41.6511 36.0698 41.538L35.9912 39.2687C36.1387 39.1522 36.2838 39.0327 36.4263 38.9102L38.6362 39.4316C38.7462 39.4573 38.8609 39.4545 38.9696 39.4236C39.0782 39.3926 39.1772 39.3345 39.2571 39.2548C39.3371 39.175 39.3954 39.0762 39.4266 38.9676C39.4578 38.859 39.4609 38.7443 39.4354 38.6342L38.9141 36.4205C39.0355 36.2774 39.155 36.1324 39.2725 35.9854L41.5419 36.064C41.6555 36.0695 41.7686 36.0456 41.8702 35.9944C41.9719 35.9433 42.0585 35.8667 42.1218 35.7722C42.1851 35.6777 42.2228 35.5684 42.2314 35.4549C42.2399 35.3415 42.2189 35.2278 42.1705 35.1248L41.2314 33.0625C41.3234 32.8964 41.4134 32.729 41.5016 32.5603L43.7364 32.1962C43.8476 32.1773 43.9522 32.1306 44.0405 32.0603C44.1287 31.9901 44.1977 31.8986 44.2409 31.7944C44.2842 31.6903 44.3004 31.5769 44.2879 31.4648C44.2754 31.3527 44.2347 31.2456 44.1696 31.1535L42.8471 29.3154L43.0139 28.7692L45.1337 27.9757C45.2404 27.9366 45.3353 27.8708 45.4092 27.7846C45.4832 27.6983 45.5338 27.5945 45.5561 27.4831C45.5784 27.3717 45.5717 27.2565 45.5367 27.1484C45.5017 27.0403 45.4395 26.943 45.356 26.8659L43.6962 25.3192C43.7166 25.1313 43.7345 24.9435 43.7499 24.7557L45.6819 23.5597C45.7791 23.501 45.8595 23.4182 45.9153 23.3193C45.9711 23.2204 46.0005 23.1088 46.0005 22.9952C46.0005 22.8816 45.9711 22.77 45.9153 22.6711C45.8595 22.5722 45.781 22.4894 45.6838 22.4307ZM32.7616 38.4445C32.4135 38.362 32.1115 38.1464 31.9204 37.8439C31.7293 37.5414 31.6642 37.1761 31.7391 36.8263C31.8141 36.4764 32.023 36.1698 32.3213 35.9722C32.6195 35.7745 32.9833 35.7015 33.3347 35.7688C33.5124 35.8045 33.6813 35.8752 33.8314 35.9767C33.9816 36.0782 34.1101 36.2085 34.2095 36.3601C34.3089 36.5116 34.3772 36.6814 34.4105 36.8596C34.4437 37.0378 34.4412 37.2208 34.4031 37.398C34.365 37.5753 34.2921 37.7431 34.1886 37.892C34.0851 38.0408 33.9531 38.1675 33.8002 38.2649C33.6473 38.3622 33.4766 38.4282 33.298 38.4591C33.1194 38.4899 32.9364 38.485 32.7597 38.4445H32.7616ZM32.1061 34.0093C31.7831 33.9406 31.446 34.0029 31.1689 34.1826C30.8918 34.3623 30.6973 34.6447 30.6284 34.9677L29.9422 38.1666C27.7641 39.1568 25.3984 39.6667 23.0058 39.6616C20.5591 39.6668 18.1412 39.1335 15.9237 38.0995L15.2375 34.9025C15.2034 34.7424 15.138 34.5905 15.0452 34.4557C14.9523 34.3208 14.8338 34.2056 14.6963 34.1166C14.5589 34.0276 14.4053 33.9666 14.2443 33.937C14.0832 33.9074 13.918 33.9098 13.7579 33.9442L10.9346 34.5517C10.4114 34.0105 9.92415 33.4355 9.47603 32.8306H23.2128C23.368 32.8306 23.4734 32.8037 23.4734 32.6619V27.8012C23.4734 27.6594 23.3699 27.6326 23.2128 27.6326H19.1954V24.5506H23.5424C23.9373 24.5506 25.6623 24.6637 26.2124 26.8678C26.3849 27.5444 26.7644 29.7505 27.025 30.4577C27.2819 31.2493 28.3341 32.8306 29.4554 32.8306H36.3017C36.3852 32.8277 36.4684 32.8194 36.5509 32.8057C36.0744 33.4493 35.5538 34.059 34.9926 34.6303L32.1061 34.0093ZM13.1043 38.3793C12.9276 38.4198 12.7446 38.4247 12.566 38.3939C12.3874 38.3631 12.2167 38.2971 12.0638 38.1997C11.9109 38.1023 11.7788 37.9756 11.6753 37.8268C11.5718 37.678 11.4989 37.5101 11.4609 37.3329C11.4228 37.1557 11.4203 36.9727 11.4535 36.7945C11.4867 36.6163 11.555 36.4465 11.6544 36.2949C11.7538 36.1433 11.8824 36.013 12.0325 35.9115C12.1827 35.81 12.3516 35.7394 12.5293 35.7037C12.882 35.6328 13.2484 35.7037 13.5493 35.901C13.8501 36.0983 14.0612 36.4061 14.1368 36.7578C14.2123 37.1096 14.1464 37.4769 13.9532 37.7804C13.7599 38.0839 13.455 38.299 13.1043 38.3793ZM7.89095 17.2442C7.97462 17.4097 8.0238 17.5904 8.0355 17.7755C8.0472 17.9605 8.02118 18.146 7.95902 18.3207C7.89686 18.4953 7.79985 18.6555 7.67388 18.7916C7.54792 18.9276 7.39562 19.0367 7.22624 19.1121C7.05686 19.1875 6.87392 19.2277 6.68853 19.2302C6.50314 19.2327 6.31917 19.1976 6.14778 19.1269C5.97639 19.0562 5.82116 18.9514 5.6915 18.8188C5.56184 18.6863 5.46047 18.5288 5.39353 18.3559C5.26044 18.0269 5.26035 17.6591 5.39328 17.3301C5.5262 17.001 5.78175 16.7365 6.10599 16.5923C6.43024 16.4481 6.79783 16.4354 7.13121 16.5571C7.46459 16.6787 7.73576 16.9251 7.89095 17.2442ZM6.29436 21.0412L9.23453 19.734C9.38404 19.6675 9.51901 19.5723 9.63171 19.4537C9.74441 19.3351 9.83265 19.1954 9.89139 19.0427C9.95012 18.89 9.9782 18.7273 9.97402 18.5637C9.96984 18.4001 9.93349 18.239 9.86703 18.0895L9.26136 16.7191H11.6457V27.4562H6.83678C6.24487 25.3721 6.06006 23.1933 6.29245 21.0392L6.29436 21.0412ZM19.2012 20.0004V16.836H24.8745C25.1678 16.836 26.9445 17.1752 26.9445 18.5035C26.9445 19.6037 25.5799 19.9985 24.4605 19.9985L19.2012 20.0004ZM39.8188 22.8486C39.8188 23.269 39.8034 23.6849 39.7728 24.0963H38.0478C37.8753 24.0963 37.8044 24.2094 37.8044 24.38V25.1716C37.8044 27.0365 36.754 27.4409 35.8302 27.5444C34.9543 27.6441 33.9825 27.1783 33.8618 26.6397C33.3443 23.7302 32.4818 23.1073 31.1209 22.034C32.8114 20.9607 34.569 19.3775 34.569 17.2577C34.569 14.9711 32.9974 13.5297 31.9298 12.8206C30.429 11.8316 28.7673 11.6322 28.3207 11.6322H10.4804C12.946 8.87613 16.2518 7.01005 19.8854 6.32308L21.9899 8.53108C22.2184 8.76915 22.5319 8.90689 22.8618 8.91407C23.1916 8.92126 23.5109 8.79731 23.7494 8.56941L26.1012 6.32116C28.4987 6.77151 30.7697 7.73774 32.7567 9.1529C34.7438 10.5681 36.3994 12.3983 37.6089 14.5168L35.9989 18.1547C35.9321 18.3043 35.8955 18.4656 35.8912 18.6293C35.8869 18.7931 35.9149 18.9561 35.9736 19.1091C36.0324 19.262 36.1207 19.4018 36.2336 19.5206C36.3464 19.6393 36.4816 19.7346 36.6314 19.8011L39.7325 21.1772C39.7862 21.7267 39.813 22.2838 39.813 22.8486H39.8188ZM21.9938 4.44858C22.1233 4.32268 22.2764 4.22369 22.4444 4.15733C22.6123 4.09097 22.7918 4.05857 22.9723 4.06198C23.1529 4.06539 23.331 4.10456 23.4963 4.17721C23.6616 4.24987 23.8109 4.35457 23.9355 4.48527C24.0602 4.61597 24.1576 4.77008 24.2223 4.93868C24.2871 5.10728 24.3177 5.28703 24.3125 5.46755C24.3073 5.64807 24.2664 5.82577 24.1921 5.99038C24.1179 6.15499 24.0117 6.30324 23.8798 6.42658C23.6134 6.65073 23.2716 6.76493 22.924 6.74594C22.5764 6.72694 22.249 6.57617 22.0087 6.32432C21.7683 6.07248 21.633 5.73849 21.6302 5.39036C21.6274 5.04223 21.7575 4.70421 21.9938 4.44858ZM37.9769 17.3113C38.0492 17.1473 38.1531 16.9992 38.2828 16.8755C38.4125 16.7518 38.5653 16.6549 38.7326 16.5905C38.8998 16.526 39.0781 16.4952 39.2573 16.4998C39.4365 16.5045 39.6129 16.5445 39.7766 16.6175C40.0246 16.7265 40.2346 16.9067 40.3801 17.1351C40.5256 17.3636 40.6 17.6301 40.594 17.9009C40.5879 18.1717 40.5016 18.4346 40.346 18.6563C40.1904 18.878 39.9726 19.0486 39.72 19.1464C39.4674 19.2442 39.1915 19.2649 38.9271 19.2058C38.6628 19.1466 38.422 19.0104 38.2351 18.8143C38.0482 18.6182 37.9238 18.3711 37.8775 18.1042C37.8312 17.8374 37.8651 17.5627 37.9749 17.3152L37.9769 17.3113Z" fill="white"/>
</g>
<defs>
<clipPath id="clip0_1_19">
<rect width="46" height="46" fill="white"/>
</clipPath>
</defs>
</svg>
