<svg width="53" height="53" viewBox="0 0 53 53" fill="none" xmlns="http://www.w3.org/2000/svg">
<path d="M27.0389 8.83334C28.2181 8.83997 31.1684 8.86868 34.3043 8.99455L35.4173 9.04313C38.573 9.19109 41.7265 9.44726 43.2922 9.8823C45.3791 10.4697 47.0176 12.179 47.5719 14.3476C48.4553 17.7926 48.5657 24.5103 48.5789 26.1378L48.5811 26.4735V26.8578C48.5657 28.4853 48.4553 35.2053 47.5719 38.6481C47.011 40.8233 45.3702 42.5347 43.2922 43.1133C41.7265 43.5483 38.573 43.8045 35.4173 43.9525L34.3043 44.0033C31.1684 44.1269 28.2181 44.1578 27.0389 44.1623L26.5199 44.1645H25.9568C23.4614 44.149 13.0248 44.0364 9.70344 43.1133C7.61877 42.5259 5.97798 40.8166 5.42369 38.6481C4.54035 35.2031 4.42994 28.4853 4.41669 26.8578V26.1378C4.42994 24.5103 4.54035 17.7903 5.42369 14.3476C5.9846 12.1723 7.6254 10.4609 9.70565 9.88451C13.0248 8.95922 23.4636 8.84659 25.959 8.83334H27.0389ZM22.0811 18.7708V34.2292L35.3311 26.5L22.0811 18.7708Z" fill="white"/>
</svg>
